<?xml version="1.0" encoding="UTF-8"?>
<svg version="1.1" xmlns="http://www.w3.org/2000/svg" width="32" height="32">
<path d="M0 0 C2 2 2 2 2.01171875 5.19921875 C0.70247421 10.11773204 -1.56152149 12.38641005 -5.1875 15.8125 C-5.75275391 16.38419922 -6.31800781 16.95589844 -6.90039062 17.54492188 C-11.56172201 22.08878558 -15.33449871 24 -22 24 C-21.16936689 16.24105501 -18.26444365 12.21672312 -12.6875 6.9375 C-12.02298828 6.26267578 -11.35847656 5.58785156 -10.67382812 4.89257812 C-4.9985722 -0.64795362 -4.9985722 -0.64795362 0 0 Z M-3 2 C-3 2.99 -3 3.98 -3 5 C-2.01 5 -1.02 5 0 5 C-0.99 4.01 -1.98 3.02 -3 2 Z M-9.1640625 7.96875 C-9.97617187 8.8040625 -10.78828125 9.639375 -11.625 10.5 C-12.85089844 11.75296875 -12.85089844 11.75296875 -14.1015625 13.03125 C-14.72804688 13.6809375 -15.35453125 14.330625 -16 15 C-15.67 15.99 -15.34 16.98 -15 18 C-11.78475695 16.59155282 -9.67816132 14.89655214 -7.25 12.375 C-6.63640625 11.74335938 -6.0228125 11.11171875 -5.390625 10.4609375 C-4.93171875 9.97882812 -4.4728125 9.49671875 -4 9 C-4.33 8.01 -4.66 7.02 -5 6 C-7.2410341 5.77568714 -7.2410341 5.77568714 -9.1640625 7.96875 Z " fill="#000000" transform="translate(30,0)"/>
<path d="M0 0 C1.51400391 0.01740234 1.51400391 0.01740234 3.05859375 0.03515625 C4.07050781 0.04417969 5.08242187 0.05320313 6.125 0.0625 C7.29869141 0.07990234 7.29869141 0.07990234 8.49609375 0.09765625 C8.49609375 0.75765625 8.49609375 1.41765625 8.49609375 2.09765625 C6.4453125 2.32552083 4.39453125 2.55338542 2.34375 2.78125 C0.48469146 2.91652239 0.48469146 2.91652239 -0.50390625 4.09765625 C-0.59090967 5.73238507 -0.61091688 7.3707968 -0.6015625 9.0078125 C-0.59906494 9.89863525 -0.59656738 10.78945801 -0.59399414 11.70727539 C-0.58489014 12.84672607 -0.57578613 13.98617676 -0.56640625 15.16015625 C-0.54578125 18.76953125 -0.52515625 22.37890625 -0.50390625 26.09765625 C7.41609375 26.09765625 15.33609375 26.09765625 23.49609375 26.09765625 C23.82609375 23.12765625 24.15609375 20.15765625 24.49609375 17.09765625 C25.48609375 17.09765625 26.47609375 17.09765625 27.49609375 17.09765625 C27.55004853 18.72229467 27.5888657 20.34744166 27.62109375 21.97265625 C27.64429687 22.87757812 27.6675 23.7825 27.69140625 24.71484375 C27.49609375 27.09765625 27.49609375 27.09765625 25.49609375 29.09765625 C22.71459961 29.34057617 22.71459961 29.34057617 19.2109375 29.328125 C17.95861328 29.32619141 16.70628906 29.32425781 15.41601562 29.32226562 C13.4447168 29.30389648 13.4447168 29.30389648 11.43359375 29.28515625 C10.11552734 29.28451172 8.79746094 29.28386719 7.43945312 29.28320312 C-2.36381502 29.23774748 -2.36381502 29.23774748 -3.50390625 28.09765625 C-3.60373683 26.11008597 -3.63471378 24.11898105 -3.63671875 22.12890625 C-3.63800781 20.91847656 -3.63929687 19.70804688 -3.640625 18.4609375 C-3.63675781 17.18605469 -3.63289062 15.91117188 -3.62890625 14.59765625 C-3.63277344 13.32277344 -3.63664063 12.04789063 -3.640625 10.734375 C-3.63933594 9.52394531 -3.63804688 8.31351563 -3.63671875 7.06640625 C-3.63559082 5.94685547 -3.63446289 4.82730469 -3.63330078 3.67382812 C-3.46139421 0.25126563 -3.42018077 0.13339239 0 0 Z " fill="#000000" transform="translate(3.50390625,2.90234375)"/>
</svg>
