<?xml version="1.0" encoding="UTF-8"?>
<svg version="1.1" xmlns="http://www.w3.org/2000/svg" width="256" height="256">
<path d="M0 0 C1.89508602 -0.00542829 3.79016781 -0.01255489 5.6852417 -0.02124023 C10.80510666 -0.03939244 15.92464727 -0.03243963 21.04451752 -0.01972389 C26.41787043 -0.0095541 31.7911967 -0.01900058 37.16455078 -0.02526855 C46.1859228 -0.0325334 55.20716356 -0.0229878 64.22851562 -0.00390625 C74.63905163 0.01786019 85.04927421 0.010808 95.45980263 -0.01121187 C104.4189604 -0.02939903 113.37802416 -0.03190799 122.33719444 -0.0214572 C127.67897042 -0.01524049 133.02059936 -0.01433631 138.36236572 -0.02760315 C143.38584215 -0.03920935 148.40891685 -0.03104909 153.43235016 -0.00802612 C155.26927272 -0.00276444 157.10622943 -0.00420895 158.94313812 -0.01307678 C173.12103165 -0.07517983 184.39123202 1.27824445 195.1171875 11.51757812 C203.83107574 20.64559174 206.73091665 30.64442822 206.65063477 43.06005859 C206.65925034 44.1557869 206.66786591 45.2515152 206.67674255 46.38044739 C206.69925953 49.96546724 206.69269348 53.54969692 206.68359375 57.13476562 C206.68883294 59.64055614 206.69511051 62.14634467 206.70237732 64.65213013 C206.71407736 70.55329054 206.70455522 76.45417094 206.68797296 82.35531151 C206.67544135 87.7288009 206.69617229 93.10177367 206.7248264 98.47518051 C206.75474759 104.30851025 206.75670857 110.14156112 206.7473278 115.97494888 C206.74650748 118.44931095 206.75338622 120.92368797 206.76809883 123.39800644 C206.78548965 126.84969774 206.77104915 130.2998365 206.74829102 133.75146484 C206.75998322 134.77284042 206.77167542 135.794216 206.78372192 136.84654236 C206.72013463 141.5790515 206.67132853 143.78946906 203.73399353 147.6489563 C200.89996136 149.67269604 199.56064686 150.19638218 196.1171875 150.14257812 C195.2921875 150.15546875 194.4671875 150.16835937 193.6171875 150.18164062 C189.85269465 149.18169721 188.49746596 147.59680076 186.1171875 144.51757812 C185.38457319 141.18972711 185.44706912 137.92650815 185.48950195 134.5300293 C185.47859528 133.0266526 185.47859528 133.0266526 185.46746826 131.49290466 C185.4488761 128.18175951 185.46494706 124.87169261 185.48046875 121.56054688 C185.47242823 119.25514257 185.46190991 116.94974569 185.44902039 114.6443634 C185.42044675 108.57285064 185.41989935 102.50167896 185.42687988 96.43011475 C185.43419632 86.72295368 185.40279183 77.01590376 185.36443138 67.30883217 C185.35559955 63.92318969 185.36087672 60.53778727 185.36799622 57.15214539 C185.36461001 55.06586645 185.36086024 52.97958806 185.35668945 50.89331055 C185.36523201 49.48952148 185.36523201 49.48952148 185.37394714 48.05737305 C185.33794139 40.02132085 184.47957318 32.89446921 179.1171875 26.51757812 C172.84634599 21.74197377 166.40527895 21.39384937 158.76785278 21.38386536 C158.04966555 21.3815998 157.33147831 21.37933424 156.59152782 21.37700003 C154.1965814 21.37069429 151.80169206 21.37148718 149.40673828 21.37231445 C147.68486458 21.36932084 145.96299154 21.36591785 144.24111938 21.36213684 C139.57166137 21.35331367 134.90222168 21.35095945 130.23275614 21.35032105 C127.31363517 21.34960965 124.39451884 21.34747363 121.47539902 21.34482384 C111.28649348 21.33557633 101.09760101 21.33148825 90.90869141 21.33227539 C81.41907165 21.33287618 71.92950875 21.32232254 62.43990338 21.30653173 C54.28515739 21.29344685 46.13042996 21.28809189 37.97567356 21.2887308 C33.1084683 21.28898549 28.24131358 21.28615033 23.3741188 21.27555275 C18.79569505 21.26585572 14.21737 21.2658036 9.63894272 21.27306938 C7.96201177 21.27411319 6.28507463 21.27176445 4.6081543 21.26570892 C2.31215098 21.2579571 0.01648587 21.26265463 -2.2795105 21.27033997 C-3.56222776 21.2697952 -4.84494503 21.26925043 -6.16653252 21.26868916 C-12.86952044 21.71760575 -18.63180473 23.10195796 -23.8828125 27.51757812 C-28.65841686 33.78841963 -29.00654126 40.22948667 -29.01652527 47.86691284 C-29.01879083 48.58510008 -29.02105638 49.30328732 -29.02339059 50.04323781 C-29.02969633 52.43818423 -29.02890344 54.83307356 -29.02807617 57.22802734 C-29.03106978 58.94990105 -29.03447278 60.67177408 -29.03825378 62.39364624 C-29.04707696 67.06310426 -29.04943118 71.73254394 -29.05006957 76.40200949 C-29.05078097 79.32113046 -29.052917 82.24024679 -29.05556679 85.15936661 C-29.0648143 95.34827215 -29.06890238 105.53716462 -29.06811523 115.72607422 C-29.06751444 125.21569397 -29.07806808 134.70525688 -29.0938589 144.19486225 C-29.10694377 152.34960824 -29.11229874 160.50433566 -29.11165982 168.65909207 C-29.11140514 173.52629733 -29.11424029 178.39345204 -29.12483788 183.26064682 C-29.1345349 187.83907058 -29.13458702 192.41739563 -29.12732124 196.99582291 C-29.12627743 198.67275385 -29.12862618 200.34969099 -29.1346817 202.02661133 C-29.14243352 204.32261464 -29.137736 206.61827975 -29.13005066 208.91427612 C-29.13086781 210.83835202 -29.13086781 210.83835202 -29.13170147 212.80129814 C-28.68278487 219.50428606 -27.29843267 225.26657036 -22.8828125 230.51757812 C-15.71712162 235.97466145 -7.94592999 235.66192766 0.63305664 235.64355469 C2.20240211 235.64635689 2.20240211 235.64635689 3.80345154 235.6492157 C6.06893226 235.65321047 8.33441699 235.65529369 10.5999012 235.6556778 C15.41504957 235.65910075 20.23006379 235.68046654 25.04516506 235.70090866 C34.00579622 235.73891563 42.9662809 235.77018729 51.92700195 235.76806641 C58.16513485 235.76728062 64.40277213 235.79058069 70.64077568 235.82994843 C73.01741751 235.8404248 75.39411642 235.8419205 77.77076912 235.83429718 C81.09129945 235.82470445 84.41031913 235.84580216 87.73071289 235.87402344 C88.71319 235.86382675 89.69566711 235.85363007 90.70791626 235.84312439 C95.35395806 235.91403604 97.44087212 235.9987563 101.22483826 238.90155029 C103.27577701 241.73681597 103.79622562 243.05913827 103.7421875 246.51757812 C103.75507813 247.34257812 103.76796875 248.16757813 103.78125 249.01757812 C102.76851447 252.83022954 101.27332872 254.13301375 98.1171875 256.51757812 C94.4106628 257.26466773 90.75432055 257.19031893 86.98388672 257.14868164 C85.29754372 257.1594146 85.29754372 257.1594146 83.57713318 257.17036438 C79.85830099 257.18727961 76.14066999 257.16782291 72.421875 257.14648438 C69.83220317 257.14731315 67.24253139 257.14977286 64.65286255 257.15379333 C59.22054884 257.15665377 53.78867826 257.14246301 48.35644531 257.11450195 C42.10057229 257.08254698 35.84532363 257.0824283 29.58940685 257.09971672 C23.54999215 257.11566421 17.51086479 257.10869022 11.47143936 257.09177971 C8.91273633 257.08661513 6.35401536 257.08705864 3.79531479 257.09332466 C0.20544391 257.09881287 -3.38339176 257.07828071 -6.97314453 257.05102539 C-8.01977768 257.05755127 -9.06641083 257.06407715 -10.14476013 257.07080078 C-21.46286022 256.92567411 -30.67061792 253.35719677 -38.8828125 245.51757812 C-49.89840243 233.97847501 -50.47330553 221.73857293 -50.40039062 206.63476562 C-50.40581891 204.73967961 -50.41294552 202.84459781 -50.42163086 200.94952393 C-50.43978307 195.82965896 -50.43283025 190.71011835 -50.42011452 185.59024811 C-50.40994473 180.21689519 -50.41939121 174.84356892 -50.42565918 169.47021484 C-50.43292402 160.44884283 -50.42337842 151.42760206 -50.40429688 142.40625 C-50.38253044 131.995714 -50.38958263 121.58549141 -50.4116025 111.174963 C-50.42978966 102.21580522 -50.43229862 93.25674147 -50.42184782 84.29757118 C-50.41563112 78.95579521 -50.41472694 73.61416627 -50.42799377 68.2723999 C-50.43959998 63.24892348 -50.43143972 58.22584877 -50.40841675 53.20241547 C-50.40315507 51.36549291 -50.40459958 49.52853619 -50.41346741 47.6916275 C-50.47557045 33.51373397 -49.12214618 22.2435336 -38.8828125 11.51757812 C-27.34370938 0.50198819 -15.1038073 -0.0729149 0 0 Z " fill="#27CFFE" transform="translate(49.8828125,-0.517578125)"/>
<path d="M0 0 C9.80592735 7.16243509 17.36770997 17.06316326 20 29.0625 C20.82930796 38.54406374 20.96274428 48.05488355 16.97265625 56.8359375 C15.88097388 59.33496942 15.25718238 61.33975484 15 64.0625 C16.19119022 66.06223936 16.19119022 66.06223936 18.11328125 67.7265625 C19.1197168 68.69722656 19.1197168 68.69722656 20.14648438 69.6875 C20.86126953 70.3475 21.57605469 71.0075 22.3125 71.6875 C23.70630809 73.01104278 25.0983118 74.336489 26.48828125 75.6640625 C27.11259033 76.24494629 27.73689941 76.82583008 28.38012695 77.42431641 C31.43307568 80.51177472 32.32794076 82.696913 32.4375 86.9375 C32.33561505 90.60535835 32.06821397 91.94881005 30.125 95.1875 C26.40946525 97.41682085 23.98418661 98.02430865 19.6796875 97.80078125 C14.23818601 96.30159206 10.78571634 92.04557596 7 88.0625 C5.2931982 86.37345097 3.5849478 84.68586403 1.875 83 C0.58073583 81.69006135 -0.7119508 80.37855026 -2 79.0625 C-2.73605469 79.33964844 -3.47210938 79.61679688 -4.23046875 79.90234375 C-5.20628906 80.26457031 -6.18210938 80.62679687 -7.1875 81 C-8.63189453 81.53947266 -8.63189453 81.53947266 -10.10546875 82.08984375 C-21.69504691 85.98431738 -33.85459949 84.80988554 -45 80.0625 C-56.38721306 73.90496997 -64.56093166 64.17318902 -69 52.0625 C-72.03780566 41.39955154 -71.23644559 27.79423274 -66 18.0625 C-59.27574272 6.34571198 -49.92055054 -1.82737381 -37 -5.9375 C-24.31968704 -9.04034983 -10.99279944 -7.03175766 0 0 Z M-45.625 25 C-49.81878012 31.29067018 -49.69365208 37.72579533 -49 45.0625 C-47.25114839 51.80332677 -42.5264129 56.1135698 -37 60.0625 C-31.43019871 63.25997852 -26.29183438 64.03914295 -20 63.0625 C-12.65973913 60.69608754 -7.27091921 56.46887882 -3 50.0625 C0.07771907 43.83476646 0.11434217 36.35765432 -1.6171875 29.68359375 C-4.57090125 23.005064 -10.17801939 18.68252591 -16.375 15.125 C-28.36340828 11.61115619 -37.74668625 15.60662591 -45.625 25 Z " fill="#48B1FE" transform="translate(224,158.9375)"/>
<path d="M0 0 C0.88973511 -0.0049649 1.77947021 -0.00992981 2.69616699 -0.01504517 C5.64266734 -0.02966304 8.58911386 -0.03646789 11.53564453 -0.04199219 C13.58204144 -0.04774359 15.62843833 -0.05350133 17.67483521 -0.05926514 C21.9671453 -0.06977381 26.25943666 -0.07561747 30.55175781 -0.07910156 C36.05204857 -0.08458844 41.55209205 -0.10862125 47.05230522 -0.13707352 C51.27992476 -0.15569513 55.50748466 -0.16090523 59.73514175 -0.16243744 C61.76293414 -0.16546516 63.79072546 -0.17349771 65.81847763 -0.18662262 C68.65521839 -0.20367429 71.49135381 -0.20180507 74.328125 -0.1953125 C75.16570343 -0.20452728 76.00328186 -0.21374207 76.86624146 -0.22323608 C81.49622627 -0.19003525 84.54731689 0.13974662 88.29345703 3.16113281 C90.97555614 7.18428148 90.98189118 10.433332 90.29345703 15.16113281 C88.17953826 18.66003285 87.17609644 19.86691968 83.29345703 21.16113281 C80.38355674 21.26812077 77.49725756 21.31840007 74.58691406 21.32226562 C73.69717896 21.32723053 72.80744385 21.33219543 71.89074707 21.33731079 C68.94424672 21.35192866 65.9978002 21.35873352 63.05126953 21.36425781 C61.00487262 21.37000922 58.95847573 21.37576695 56.91207886 21.38153076 C52.61976877 21.39203944 48.3274774 21.3978831 44.03515625 21.40136719 C38.53486549 21.40685407 33.03482201 21.43088688 27.53460884 21.45933914 C23.3069893 21.47796075 19.0794294 21.48317085 14.85177231 21.48470306 C12.82397992 21.48773079 10.79618861 21.49576334 8.76843643 21.50888824 C5.93169567 21.52593992 3.09556026 21.52407069 0.25878906 21.51757812 C-0.57878937 21.52679291 -1.4163678 21.53600769 -2.27932739 21.54550171 C-6.90931221 21.51230088 -9.96040283 21.182519 -13.70654297 18.16113281 C-16.38864208 14.13798415 -16.39497712 10.88893362 -15.70654297 6.16113281 C-11.72595414 -0.42742801 -7.08627799 0.00941208 0 0 Z " fill="#3DBBFE" transform="translate(115.70654296875,115.8388671875)"/>
<path d="M0 0 C0.88973511 -0.0049649 1.77947021 -0.00992981 2.69616699 -0.01504517 C5.64266734 -0.02966304 8.58911386 -0.03646789 11.53564453 -0.04199219 C13.58204144 -0.04774359 15.62843833 -0.05350133 17.67483521 -0.05926514 C21.9671453 -0.06977381 26.25943666 -0.07561747 30.55175781 -0.07910156 C36.05204857 -0.08458844 41.55209205 -0.10862125 47.05230522 -0.13707352 C51.27992476 -0.15569513 55.50748466 -0.16090523 59.73514175 -0.16243744 C61.76293414 -0.16546516 63.79072546 -0.17349771 65.81847763 -0.18662262 C68.65521839 -0.20367429 71.49135381 -0.20180507 74.328125 -0.1953125 C75.16570343 -0.20452728 76.00328186 -0.21374207 76.86624146 -0.22323608 C81.49622627 -0.19003525 84.54731689 0.13974662 88.29345703 3.16113281 C90.97555614 7.18428148 90.98189118 10.433332 90.29345703 15.16113281 C88.17953826 18.66003285 87.17609644 19.86691968 83.29345703 21.16113281 C80.38355674 21.26812077 77.49725756 21.31840007 74.58691406 21.32226562 C73.69717896 21.32723053 72.80744385 21.33219543 71.89074707 21.33731079 C68.94424672 21.35192866 65.9978002 21.35873352 63.05126953 21.36425781 C61.00487262 21.37000922 58.95847573 21.37576695 56.91207886 21.38153076 C52.61976877 21.39203944 48.3274774 21.3978831 44.03515625 21.40136719 C38.53486549 21.40685407 33.03482201 21.43088688 27.53460884 21.45933914 C23.3069893 21.47796075 19.0794294 21.48317085 14.85177231 21.48470306 C12.82397992 21.48773079 10.79618861 21.49576334 8.76843643 21.50888824 C5.93169567 21.52593992 3.09556026 21.52407069 0.25878906 21.51757812 C-0.57878937 21.52679291 -1.4163678 21.53600769 -2.27932739 21.54550171 C-6.90931221 21.51230088 -9.96040283 21.182519 -13.70654297 18.16113281 C-16.38864208 14.13798415 -16.39497712 10.88893362 -15.70654297 6.16113281 C-11.72595414 -0.42742801 -7.08627799 0.00941208 0 0 Z " fill="#3DBBFE" transform="translate(115.70654296875,55.8388671875)"/>
<path d="M0 0 C1.62035156 -0.02900391 1.62035156 -0.02900391 3.2734375 -0.05859375 C8.20120064 -0.02817546 11.09247017 -0.00430901 15.2109375 2.8515625 C17.08779921 5.76110795 17.67850843 7.20046054 17.625 10.625 C17.63789063 11.45 17.65078125 12.275 17.6640625 13.125 C16.62866221 17.02297757 15.33250887 18.31413618 12 20.625 C7.98641605 21.36192531 4.07010856 21.32285397 0 21.25 C-1.62035156 21.27900391 -1.62035156 21.27900391 -3.2734375 21.30859375 C-8.20120064 21.27817546 -11.09247017 21.25430901 -15.2109375 18.3984375 C-17.08779921 15.48889205 -17.67850843 14.04953946 -17.625 10.625 C-17.63789062 9.8 -17.65078125 8.975 -17.6640625 8.125 C-15.28224981 -0.84182423 -7.69078639 -0.13766324 0 0 Z " fill="#32C5FE" transform="translate(117,179.375)"/>
<path d="M0 0 C1.06154297 -0.0309375 1.06154297 -0.0309375 2.14453125 -0.0625 C6.67950401 -0.09628006 9.54563357 0.42348924 13.125 3.25 C15.80709911 7.27314866 15.81343415 10.52219919 15.125 15.25 C13.01108123 18.74890004 12.00763941 19.95578686 8.125 21.25 C5.48562776 21.39821529 2.88993877 21.48097341 0.25 21.5 C-0.45769531 21.520625 -1.16539063 21.54125 -1.89453125 21.5625 C-6.42950401 21.59628006 -9.29563357 21.07651076 -12.875 18.25 C-15.55709911 14.22685134 -15.56343415 10.97780081 -14.875 6.25 C-11.08094519 -0.02981486 -6.81625458 0.04912616 0 0 Z " fill="#1FD6FE" transform="translate(64.875,115.75)"/>
<path d="M0 0 C1.06154297 -0.0309375 1.06154297 -0.0309375 2.14453125 -0.0625 C6.67950401 -0.09628006 9.54563357 0.42348924 13.125 3.25 C15.80709911 7.27314866 15.81343415 10.52219919 15.125 15.25 C13.01108123 18.74890004 12.00763941 19.95578686 8.125 21.25 C5.48562776 21.39821529 2.88993877 21.48097341 0.25 21.5 C-0.45769531 21.520625 -1.16539063 21.54125 -1.89453125 21.5625 C-6.42950401 21.59628006 -9.29563357 21.07651076 -12.875 18.25 C-15.55709911 14.22685134 -15.56343415 10.97780081 -14.875 6.25 C-11.08094519 -0.02981486 -6.81625458 0.04912616 0 0 Z " fill="#1FD6FE" transform="translate(64.875,55.75)"/>
<path d="M0 0 C1.33417969 -0.02900391 1.33417969 -0.02900391 2.6953125 -0.05859375 C7.17107353 -0.02519255 9.37670151 0.1752783 13.0859375 2.8515625 C15.10334159 5.77473985 15.67974428 7.12136598 15.625 10.625 C15.63789062 11.45 15.65078125 12.275 15.6640625 13.125 C14.6520897 16.93477996 13.19322134 18.32103017 10 20.625 C6.64654241 21.3454549 3.41836502 21.32431228 0 21.25 C-0.88945313 21.26933594 -1.77890625 21.28867188 -2.6953125 21.30859375 C-7.17107353 21.27519255 -9.37670151 21.0747217 -13.0859375 18.3984375 C-15.10334159 15.47526015 -15.67974428 14.12863402 -15.625 10.625 C-15.63789062 9.8 -15.65078125 8.975 -15.6640625 8.125 C-13.49006126 -0.05947527 -7.1536238 -0.15551356 0 0 Z " fill="#1FD6FE" transform="translate(65,179.375)"/>
</svg>
